<svg width="261" height="44" viewBox="0 0 261 44" fill="none" xmlns="http://www.w3.org/2000/svg">
<path d="M253.1 0.000460901L7.90019 1.43864e-05C3.53706 6.44108e-06 7.68362e-05 3.53706 0.000171617 7.90018L0.000784211 36.1002C0.000878989 40.4632 3.53779 44 7.90077 44H253.1C257.463 44 261 40.463 261 36.1V7.90046C261 3.53742 257.463 0.000468847 253.1 0.000460901Z" fill="#D5F9D2"/>
<path d="M44.5 0V44" stroke="#5E5E5E"/>
<path d="M59.3699 28V16.1273H63.2432C64.537 16.1273 65.5291 16.4562 66.2195 17.114C66.9099 17.7664 67.2551 18.6334 67.2551 19.7152C67.2551 20.797 66.9099 21.6723 66.2195 22.3409C65.5291 23.0041 64.537 23.3357 63.2432 23.3357H60.8948V28H59.3699ZM60.8948 22.08H63.2432C64.1674 22.08 64.8116 21.8517 65.1758 21.395C65.5454 20.9329 65.7303 20.373 65.7303 19.7152C65.7303 19.0575 65.5454 18.5057 65.1758 18.0599C64.8116 17.6087 64.1674 17.3831 63.2432 17.3831H60.8948V22.08ZM68.2173 23.8739V23.613C68.2173 22.33 68.5788 21.2836 69.3019 20.4736C70.0303 19.6582 71.0034 19.2504 72.2211 19.2504C73.4388 19.2504 74.4092 19.6582 75.1322 20.4736C75.8606 21.2836 76.2249 22.33 76.2249 23.613V23.8739C76.2249 25.1569 75.8606 26.2061 75.1322 27.0215C74.4092 27.8315 73.4388 28.2365 72.2211 28.2365C71.0034 28.2365 70.0303 27.8315 69.3019 27.0215C68.5788 26.2061 68.2173 25.1569 68.2173 23.8739ZM69.7259 23.613V23.8739C69.7259 24.76 69.9352 25.5075 70.3538 26.1164C70.7723 26.7252 71.3948 27.0296 72.2211 27.0296C73.0474 27.0296 73.6671 26.7252 74.0803 26.1164C74.4989 25.5075 74.7082 24.76 74.7082 23.8739V23.613C74.7082 22.7269 74.4989 21.9821 74.0803 21.3787C73.6671 20.7699 73.0474 20.4654 72.2211 20.4654C71.3948 20.4654 70.7723 20.7699 70.3538 21.3787C69.9352 21.9821 69.7259 22.7269 69.7259 23.613ZM77.0974 19.4869H78.5325L80.1063 25.1052C80.1661 25.3227 80.2123 25.5021 80.2449 25.6434C80.283 25.7793 80.3237 25.9533 80.3672 26.1653H80.4162C80.4597 25.9533 80.4977 25.7793 80.5303 25.6434C80.5684 25.5021 80.6227 25.3227 80.6934 25.1052L82.5526 19.4869H83.8084L85.7165 25.1052C85.7926 25.3227 85.8496 25.5021 85.8877 25.6434C85.9257 25.7847 85.9665 25.9587 86.01 26.1653H86.0589C86.097 25.9587 86.1323 25.7847 86.1649 25.6434C86.1976 25.5021 86.2438 25.3227 86.3036 25.1052L87.8284 19.4869H89.1902L86.5645 28H85.3984L83.5311 22.4469C83.4659 22.2349 83.4006 22.0229 83.3354 21.8109C83.2756 21.5989 83.2185 21.3869 83.1642 21.1749H83.1152C83.0663 21.3869 83.0092 21.5989 82.944 21.8109C82.8842 22.0229 82.8217 22.2349 82.7564 22.4469L80.8891 28H79.723L77.0974 19.4869ZM90.0708 23.8739V23.613C90.0708 22.33 90.4215 21.2836 91.1228 20.4736C91.824 19.6582 92.7536 19.2504 93.9115 19.2504C95.064 19.2504 95.9528 19.631 96.578 20.392C97.2031 21.1477 97.5157 22.1724 97.5157 23.4662V24.0696H90.976V22.8954H96.0235V22.7079C96.0235 22.0881 95.8468 21.5608 95.4935 21.1259C95.1455 20.6856 94.6373 20.4654 93.9686 20.4654C93.1695 20.4654 92.5715 20.7699 92.1747 21.3787C91.7778 21.9821 91.5794 22.7269 91.5794 23.613V23.8739C91.5794 24.76 91.7887 25.5075 92.2073 26.1164C92.6259 26.7252 93.2728 27.0296 94.148 27.0296C94.6862 27.0296 95.151 26.9128 95.5424 26.679C95.9338 26.4398 96.2491 26.1544 96.4883 25.8228L97.4505 26.5893C97.1787 26.9916 96.7628 27.3667 96.2029 27.7146C95.643 28.0625 94.958 28.2365 94.148 28.2365C92.8324 28.2365 91.824 27.8315 91.1228 27.0215C90.4215 26.2061 90.0708 25.1569 90.0708 23.8739ZM99.3423 28V19.4869H100.68L100.745 20.5877H100.786C101.003 20.229 101.288 19.9164 101.642 19.65C101.995 19.3836 102.416 19.2504 102.906 19.2504C103.025 19.2504 103.15 19.264 103.281 19.2912C103.411 19.3184 103.504 19.3429 103.558 19.3646V20.7264C103.449 20.7046 103.335 20.6883 103.216 20.6774C103.096 20.6666 102.966 20.6611 102.824 20.6611C102.34 20.6611 101.927 20.7889 101.585 21.0444C101.242 21.2999 100.987 21.6206 100.818 22.0066V28H99.3423ZM104.308 23.8739V23.613C104.308 22.33 104.659 21.2836 105.36 20.4736C106.061 19.6582 106.991 19.2504 108.149 19.2504C109.301 19.2504 110.19 19.631 110.815 20.392C111.441 21.1477 111.753 22.1724 111.753 23.4662V24.0696H105.213V22.8954H110.261V22.7079C110.261 22.0881 110.084 21.5608 109.731 21.1259C109.383 20.6856 108.875 20.4654 108.206 20.4654C107.407 20.4654 106.809 20.7699 106.412 21.3787C106.015 21.9821 105.817 22.7269 105.817 23.613V23.8739C105.817 24.76 106.026 25.5075 106.445 26.1164C106.863 26.7252 107.51 27.0296 108.385 27.0296C108.924 27.0296 109.388 26.9128 109.78 26.679C110.171 26.4398 110.486 26.1544 110.726 25.8228L111.688 26.5893C111.416 26.9916 111 27.3667 110.44 27.7146C109.88 28.0625 109.195 28.2365 108.385 28.2365C107.07 28.2365 106.061 27.8315 105.36 27.0215C104.659 26.2061 104.308 25.1569 104.308 23.8739ZM113.066 23.8739V23.613C113.066 22.3735 113.389 21.3488 114.036 20.5388C114.683 19.7288 115.545 19.3238 116.621 19.3238C117.219 19.3238 117.728 19.4326 118.146 19.65C118.565 19.862 118.899 20.142 119.149 20.4899V15.5158H120.625V28H119.288L119.222 26.8829H119.174C118.956 27.2362 118.624 27.5379 118.179 27.788C117.738 28.0381 117.219 28.1631 116.621 28.1631C115.545 28.1631 114.683 27.7581 114.036 26.9481C113.389 26.1381 113.066 25.1134 113.066 23.8739ZM114.575 23.8739C114.575 24.7437 114.765 25.4749 115.145 26.0674C115.526 26.6545 116.124 26.9481 116.939 26.9481C117.483 26.9481 117.945 26.7986 118.325 26.4996C118.706 26.2006 118.981 25.8636 119.149 25.4885V21.9984C118.981 21.6179 118.706 21.2809 118.325 20.9873C117.945 20.6883 117.483 20.5388 116.939 20.5388C116.124 20.5388 115.526 20.8351 115.145 21.4276C114.765 22.0147 114.575 22.7432 114.575 23.613V23.8739ZM127.018 28V15.5158H128.494V20.498C128.744 20.1447 129.078 19.862 129.497 19.65C129.921 19.4326 130.429 19.3238 131.022 19.3238C132.104 19.3238 132.965 19.7288 133.607 20.5388C134.254 21.3434 134.577 22.3681 134.577 23.613V23.8739C134.577 25.1134 134.254 26.1381 133.607 26.9481C132.965 27.7581 132.104 28.1631 131.022 28.1631C130.429 28.1631 129.907 28.0408 129.456 27.7961C129.01 27.5461 128.679 27.2444 128.461 26.891H128.421L128.355 28H127.018ZM128.494 25.4885C128.668 25.869 128.942 26.2088 129.317 26.5078C129.698 26.8013 130.163 26.9481 130.712 26.9481C131.522 26.9481 132.117 26.6545 132.498 26.0674C132.878 25.4749 133.068 24.741 133.068 23.8658V23.613C133.068 22.7432 132.878 22.0147 132.498 21.4276C132.117 20.8351 131.519 20.5388 130.704 20.5388C130.16 20.5388 129.698 20.6883 129.317 20.9873C128.937 21.2863 128.662 21.6233 128.494 21.9984V25.4885ZM135.556 31.3922V30.1364C135.697 30.1799 135.852 30.2153 136.02 30.2424C136.194 30.2696 136.363 30.2832 136.526 30.2832C136.906 30.2832 137.235 30.1364 137.513 29.8429C137.795 29.5493 138.094 28.9269 138.41 27.9755V27.9674L135.229 19.4869H136.673L138.703 25.1297C138.779 25.3417 138.844 25.5428 138.899 25.7331C138.959 25.9179 139.01 26.0919 139.054 26.255H139.103C139.152 26.0919 139.206 25.9179 139.266 25.7331C139.331 25.5428 139.399 25.339 139.47 25.1215L141.37 19.4869H142.772L139.306 29.1416C139.029 29.9081 138.67 30.5007 138.23 30.9192C137.79 31.3433 137.249 31.5553 136.607 31.5553C136.39 31.5553 136.197 31.5417 136.028 31.5145C135.86 31.4873 135.702 31.4465 135.556 31.3922ZM149.899 28.0571L147.061 16.1273H149.238L151.081 24.3876C151.119 24.567 151.147 24.7138 151.163 24.828C151.179 24.9367 151.198 25.0808 151.22 25.2602H151.293C151.315 25.0808 151.334 24.9367 151.35 24.828C151.367 24.7138 151.397 24.567 151.44 24.3876L153.462 16.1273H155.819L157.89 24.3795C157.934 24.5589 157.964 24.7057 157.98 24.8198C157.996 24.934 158.015 25.0808 158.037 25.2602H158.102C158.124 25.0808 158.143 24.934 158.159 24.8198C158.181 24.7057 158.211 24.5589 158.249 24.3795L160.018 16.1273H162L159.203 28.0571H156.846L154.743 19.7805C154.699 19.6011 154.661 19.4353 154.628 19.2831C154.601 19.1254 154.577 18.9569 154.555 18.7775H154.498C154.476 18.9569 154.449 19.1254 154.416 19.2831C154.389 19.4353 154.354 19.6011 154.31 19.7805L152.207 28.0571H149.899ZM162.628 23.8658V23.6048C162.628 22.2838 163.019 21.2238 163.802 20.4247C164.59 19.6255 165.626 19.226 166.909 19.226C168.186 19.226 169.219 19.6255 170.007 20.4247C170.796 21.2238 171.19 22.2838 171.19 23.6048V23.8658C171.19 25.1868 170.796 26.2468 170.007 27.0459C169.219 27.8451 168.186 28.2446 166.909 28.2446C165.626 28.2446 164.59 27.8451 163.802 27.0459C163.019 26.2468 162.628 25.1868 162.628 23.8658ZM164.797 23.5151V23.9555C164.797 24.7709 164.976 25.4178 165.335 25.8962C165.699 26.3691 166.224 26.6056 166.909 26.6056C167.594 26.6056 168.116 26.3691 168.474 25.8962C168.833 25.4178 169.013 24.7682 169.013 23.9473V23.5151C169.013 22.6997 168.83 22.0555 168.466 21.5826C168.102 21.1042 167.583 20.865 166.909 20.865C166.229 20.865 165.707 21.1042 165.343 21.5826C164.979 22.0555 164.797 22.6997 164.797 23.5151ZM172.413 23.8658V23.6048C172.413 22.2838 172.804 21.2238 173.587 20.4247C174.375 19.6255 175.411 19.226 176.694 19.226C177.971 19.226 179.004 19.6255 179.793 20.4247C180.581 21.2238 180.975 22.2838 180.975 23.6048V23.8658C180.975 25.1868 180.581 26.2468 179.793 27.0459C179.004 27.8451 177.971 28.2446 176.694 28.2446C175.411 28.2446 174.375 27.8451 173.587 27.0459C172.804 26.2468 172.413 25.1868 172.413 23.8658ZM174.582 23.5151V23.9555C174.582 24.7709 174.761 25.4178 175.12 25.8962C175.484 26.3691 176.009 26.6056 176.694 26.6056C177.379 26.6056 177.901 26.3691 178.26 25.8962C178.618 25.4178 178.798 24.7682 178.798 23.9473V23.5151C178.798 22.6997 178.616 22.0555 178.251 21.5826C177.887 21.1042 177.368 20.865 176.694 20.865C176.014 20.865 175.493 21.1042 175.128 21.5826C174.764 22.0555 174.582 22.6997 174.582 23.5151ZM181.978 28V26.5975L186.267 21.1096H182.043V19.4706H188.991V20.8487L184.661 26.3691H189.235V28H181.978ZM190.312 31.3922L190.328 29.7776C190.469 29.8211 190.624 29.8537 190.793 29.8755C190.961 29.9027 191.124 29.9163 191.282 29.9163C191.652 29.9163 191.975 29.7885 192.252 29.533C192.53 29.2829 192.785 28.7611 193.019 27.9674H192.97L189.7 19.4706H191.828L193.647 24.6486C193.723 24.8552 193.783 25.0454 193.826 25.2194C193.87 25.3933 193.91 25.5673 193.948 25.7413H193.997C194.041 25.5673 194.084 25.3933 194.128 25.2194C194.177 25.0454 194.237 24.8552 194.307 24.6486L196.052 19.4706H197.985L194.495 29.0274C194.19 29.8592 193.788 30.4871 193.288 30.9111C192.788 31.3405 192.171 31.5553 191.437 31.5553C191.198 31.5553 190.988 31.5417 190.809 31.5145C190.63 31.4873 190.464 31.4465 190.312 31.3922ZM198.596 24.6812V24.4773H200.806V24.6567C200.806 25.2819 201.01 25.7521 201.418 26.0674C201.825 26.3827 202.396 26.5404 203.13 26.5404C203.859 26.5404 204.416 26.3882 204.802 26.0837C205.193 25.7793 205.389 25.377 205.389 24.8769C205.389 24.3822 205.201 23.9962 204.826 23.719C204.457 23.4417 203.685 23.1428 202.51 22.822C201.255 22.4795 200.322 22.0392 199.714 21.501C199.105 20.9628 198.8 20.2154 198.8 19.2586C198.8 18.2529 199.181 17.4402 199.942 16.8205C200.708 16.2007 201.747 15.8909 203.057 15.8909C204.361 15.8909 205.405 16.2116 206.188 16.8531C206.971 17.4945 207.362 18.3399 207.362 19.3891V19.5766H205.185V19.4135C205.185 18.8699 205.006 18.4323 204.647 18.1007C204.294 17.7636 203.766 17.5951 203.065 17.5951C202.358 17.5951 201.839 17.7337 201.507 18.011C201.176 18.2828 201.01 18.6525 201.01 19.12C201.01 19.5657 201.187 19.9082 201.54 20.1474C201.893 20.3866 202.66 20.6693 203.84 20.9955C205.074 21.3379 206.006 21.7891 206.637 22.3491C207.273 22.909 207.593 23.7081 207.599 24.7464C207.599 25.8228 207.191 26.6736 206.376 27.2987C205.566 27.9239 204.484 28.2365 203.13 28.2365C201.787 28.2365 200.695 27.9293 199.852 27.315C199.015 26.6953 198.596 25.8174 198.596 24.6812ZM208.161 21.0362V19.4706H213.307V21.0362H208.161ZM209.515 25.5945V20.286L209.523 20.0577V17.3831H211.627V25.5374C211.627 25.9342 211.7 26.2088 211.847 26.361C211.994 26.5132 212.211 26.5893 212.499 26.5893C212.63 26.5893 212.76 26.5757 212.891 26.5485C213.027 26.5159 213.157 26.4751 213.282 26.4262V27.9918C213.152 28.0571 212.97 28.1142 212.736 28.1631C212.508 28.212 212.255 28.2365 211.978 28.2365C211.233 28.2365 210.635 28.0245 210.184 27.6004C209.738 27.1764 209.515 26.5078 209.515 25.5945ZM214.677 24.7954V19.4706H216.797V24.8361C216.797 25.4559 216.927 25.8908 217.188 26.1408C217.449 26.3854 217.808 26.5078 218.265 26.5078C218.672 26.5078 219.031 26.3936 219.341 26.1653C219.656 25.9315 219.898 25.6407 220.067 25.2928V19.4706H222.187V28H220.189L220.132 26.9889H220.091C219.825 27.3531 219.471 27.6412 219.031 27.8532C218.591 28.0598 218.099 28.1631 217.555 28.1631C216.702 28.1631 216.009 27.9049 215.476 27.3884C214.943 26.872 214.677 26.0076 214.677 24.7954ZM223.883 23.8658V23.6048C223.883 22.3436 224.217 21.3135 224.886 20.5144C225.56 19.7098 226.443 19.3075 227.536 19.3075C228.096 19.3075 228.577 19.4081 228.979 19.6092C229.382 19.8049 229.694 20.0659 229.917 20.392V15.5402H232.029V28H230.039L229.99 26.9644H229.942C229.751 27.3014 229.441 27.5868 229.012 27.8206C228.588 28.0489 228.099 28.1631 227.544 28.1631C226.413 28.1631 225.519 27.7635 224.861 26.9644C224.209 26.1598 223.883 25.127 223.883 23.8658ZM226.052 23.9392C226.052 24.6948 226.215 25.3172 226.541 25.8065C226.873 26.2903 227.373 26.5322 228.042 26.5322C228.504 26.5322 228.892 26.4099 229.208 26.1653C229.528 25.9152 229.762 25.6217 229.909 25.2846V22.186C229.768 21.8489 229.539 21.5581 229.224 21.3135C228.914 21.0634 228.523 20.9384 228.05 20.9384C227.381 20.9384 226.881 21.183 226.549 21.6723C226.218 22.1561 226.052 22.7758 226.052 23.5314V23.9392ZM234.255 28V19.4706H236.383V28H234.255ZM234.051 17.008C234.051 16.6764 234.16 16.3992 234.377 16.1763C234.6 15.9479 234.913 15.8338 235.315 15.8338C235.723 15.8338 236.035 15.9479 236.253 16.1763C236.47 16.3992 236.579 16.6764 236.579 17.008C236.579 17.3342 236.47 17.6114 236.253 17.8397C236.035 18.0626 235.723 18.1741 235.315 18.1741C234.907 18.1741 234.595 18.0626 234.377 17.8397C234.16 17.6114 234.051 17.3342 234.051 17.008ZM238.12 23.8658V23.6048C238.12 22.2838 238.512 21.2238 239.294 20.4247C240.083 19.6255 241.118 19.226 242.401 19.226C243.679 19.226 244.712 19.6255 245.5 20.4247C246.288 21.2238 246.682 22.2838 246.682 23.6048V23.8658C246.682 25.1868 246.288 26.2468 245.5 27.0459C244.712 27.8451 243.679 28.2446 242.401 28.2446C241.118 28.2446 240.083 27.8451 239.294 27.0459C238.512 26.2468 238.12 25.1868 238.12 23.8658ZM240.289 23.5151V23.9555C240.289 24.7709 240.469 25.4178 240.827 25.8962C241.192 26.3691 241.716 26.6056 242.401 26.6056C243.086 26.6056 243.608 26.3691 243.967 25.8962C244.326 25.4178 244.505 24.7682 244.505 23.9473V23.5151C244.505 22.6997 244.323 22.0555 243.959 21.5826C243.595 21.1042 243.075 20.865 242.401 20.865C241.722 20.865 241.2 21.1042 240.836 21.5826C240.471 22.0555 240.289 22.6997 240.289 23.5151Z" fill="#3E5C39"/>
<path d="M25.8876 25.7741L32.9137 22.646C32.9397 22.6315 32.9616 22.6104 32.9767 22.5848C32.9919 22.5591 33 22.5298 33 22.5C33 22.4702 32.9919 22.4409 32.9767 22.4152C32.9616 22.3896 32.9397 22.3685 32.9137 22.354L25.8876 19.2259C25.8654 19.2259 25.844 19.2172 25.8284 19.2015C25.8127 19.1858 25.8039 19.1647 25.8039 19.1425L22.6672 12.0939C22.5836 11.9687 22.4163 11.9687 22.3745 12.0939L19.2379 19.1425C19.196 19.1842 19.196 19.2259 19.1542 19.2259L12.0863 22.354C12.0601 22.3685 12.0384 22.3896 12.0232 22.4152C12.008 22.4409 12 22.4702 12 22.5C12 22.5298 12.008 22.5591 12.0232 22.5848C12.0384 22.6104 12.0601 22.6315 12.0863 22.646L19.1542 25.7741C19.196 25.7741 19.196 25.8158 19.2379 25.8575L22.3745 32.9061C22.4163 33.0313 22.5836 33.0313 22.6672 32.9061L25.8039 25.8575C25.8039 25.8353 25.8127 25.8142 25.8284 25.7985C25.844 25.7828 25.8654 25.7741 25.8876 25.7741Z" fill="#3E5C39"/>
</svg>
